<svg width="575" height="178" viewBox="0 0 575 178" fill="none" xmlns="http://www.w3.org/2000/svg">
<g clip-path="url(#clip0)">
<g filter="url(#filter0_d)">
<path d="M102.183 138.51C99.2844 141.408 94.329 139.355 94.329 135.257L94.329 98.7C94.329 96.1592 96.3887 94.0995 98.9295 94.0995L135.486 94.0996C139.585 94.0996 141.637 99.0549 138.739 101.953L102.183 138.51Z" fill="#30C2FF"/>
<path d="M147.867 110.401L147.867 135.763C147.867 139.787 143.064 141.872 140.125 139.123L127.101 126.944C125.209 125.175 125.15 122.193 126.971 120.351L139.994 107.168C142.884 104.243 147.867 106.289 147.867 110.401Z" fill="#9AD2FA"/>
</g>
<g filter="url(#filter1_d)">
<path d="M38.9106 139.711C35.9059 142.576 37.9337 147.641 42.0853 147.641L80.8065 147.641C83.3472 147.641 85.4069 145.581 85.4069 143.04L85.4069 106.12C85.4069 102.074 80.56 99.9984 77.6318 102.79L38.9106 139.711Z" fill="#9AC0FA"/>
<path d="M68.6722 94.1025L41.588 94.1025C37.5054 94.1025 35.4457 99.0249 38.3116 101.932L51.3176 115.127C53.0695 116.905 55.9191 116.961 57.74 115.254L71.8182 102.06C74.8613 99.2074 72.843 94.1025 68.6722 94.1025Z" fill="#3F7ADC"/>
</g>
<g filter="url(#filter2_d)">
<path d="M77.5126 39.7275C80.3939 36.7741 85.406 38.8141 85.406 42.9401L85.406 79.3C85.406 81.8408 83.3463 83.9005 80.8055 83.9005L45.3325 83.9004C41.2612 83.9004 39.1965 79.0015 42.0395 76.0873L77.5126 39.7275Z" fill="#30BEFA"/>
<path d="M31.8676 67.5988L31.8676 42.2374C31.8676 38.2127 36.6707 36.1283 39.6103 38.8772L52.6338 51.0559C54.5256 52.8251 54.5847 55.8066 52.7643 57.6493L39.7409 70.832C36.8509 73.7573 31.8676 71.7109 31.8676 67.5988Z" fill="#9AD2FA"/>
</g>
<g filter="url(#filter3_d)">
<path d="M139.781 38.2557C142.733 35.374 140.693 30.3632 136.568 30.3632L98.9282 30.3632C96.3875 30.3632 94.3277 32.4229 94.3277 34.9637L94.3278 71.707C94.3278 75.7789 99.2281 77.8433 102.142 74.9989L139.781 38.2557Z" fill="#9AC0FA"/>
<path d="M110.846 83.8995L137.07 83.8995C141.124 83.8995 143.196 79.0362 140.388 76.1123L127.795 63.0003C126.035 61.1668 123.12 61.1091 121.288 62.8715L107.657 75.9834C104.672 78.8547 106.705 83.8995 110.846 83.8995Z" fill="#3F7ADC"/>
</g>
<path d="M183.597 105.955C183.165 105.955 182.949 105.724 182.949 105.261V72.2761C182.949 72.0293 182.98 71.8597 183.041 71.7672C183.134 71.6746 183.288 71.6284 183.504 71.6284H187.945C188.192 71.6284 188.362 71.6746 188.454 71.7672C188.577 71.8289 188.67 71.9522 188.732 72.1373L199.002 98.6456C199.094 98.9232 199.202 99.062 199.326 99.062C199.48 99.062 199.619 98.9078 199.742 98.5994L210.012 72.2298C210.105 71.8289 210.336 71.6284 210.706 71.6284H215.379C215.718 71.6284 215.888 71.8289 215.888 72.2298V105.261C215.888 105.724 215.656 105.955 215.194 105.955H212.14C211.678 105.955 211.447 105.755 211.447 105.354V78.8916C211.447 78.7374 211.416 78.6757 211.354 78.7065C211.323 78.7065 211.277 78.7682 211.215 78.8916L201.037 105.354C200.852 105.755 200.559 105.955 200.158 105.955H197.938C197.475 105.955 197.167 105.77 197.013 105.4L186.974 79.1692C186.943 79.0149 186.897 78.9378 186.835 78.9378C186.773 78.9378 186.742 79.0149 186.742 79.1692V105.354C186.742 105.57 186.696 105.724 186.604 105.816C186.511 105.909 186.341 105.955 186.095 105.955H183.597ZM238.198 102.994C235.823 105.277 233.078 106.418 229.963 106.418C227.557 106.418 225.661 105.816 224.273 104.613C222.916 103.38 222.237 101.745 222.237 99.7097C222.237 97.2423 223.27 95.2993 225.337 93.8806C227.434 92.4619 230.456 91.6292 234.404 91.3824L238.013 91.1049C238.537 91.0432 238.799 90.8119 238.799 90.4109V89.1618C238.799 87.4964 238.275 86.1856 237.226 85.2295C236.208 84.2426 234.821 83.7491 233.063 83.7491C230.349 83.7491 228.128 84.9828 226.401 87.4501C226.308 87.6043 226.216 87.7123 226.123 87.774C226.031 87.8048 225.907 87.7894 225.753 87.7277L223.255 86.895C223.101 86.8333 223.024 86.7253 223.024 86.5711C223.024 86.4786 223.07 86.3398 223.162 86.1548C224.088 84.5202 225.398 83.2557 227.095 82.3613C228.822 81.436 230.857 80.9734 233.201 80.9734C236.224 80.9734 238.537 81.6827 240.141 83.1015C241.745 84.4893 242.546 86.4169 242.546 88.8843V105.261C242.546 105.539 242.5 105.724 242.408 105.816C242.315 105.909 242.145 105.955 241.899 105.955H239.586C239.216 105.955 239 105.708 238.938 105.215L238.845 103.087C238.815 102.871 238.737 102.763 238.614 102.763C238.491 102.763 238.352 102.84 238.198 102.994ZM238.799 94.2044C238.799 93.711 238.568 93.4642 238.105 93.4642L235.098 93.7418C232.23 93.9269 230.009 94.482 228.436 95.4073C226.894 96.3325 226.123 97.6124 226.123 99.247C226.123 100.573 226.586 101.622 227.511 102.393C228.467 103.164 229.732 103.549 231.305 103.549C232.261 103.549 233.201 103.38 234.127 103.041C235.052 102.701 235.869 102.239 236.579 101.653C237.288 101.098 237.828 100.512 238.198 99.8947C238.599 99.247 238.799 98.6302 238.799 98.0442V94.2044ZM270.482 105.215C270.544 105.277 270.575 105.385 270.575 105.539C270.575 105.816 270.405 105.955 270.066 105.955H266.827C266.642 105.955 266.488 105.924 266.365 105.863C266.241 105.77 266.118 105.616 265.995 105.4L259.009 93.418C258.947 93.2638 258.87 93.1867 258.778 93.1867C258.685 93.1558 258.577 93.2021 258.454 93.3254L253.55 98.2755C253.334 98.4914 253.226 98.7998 253.226 99.2008V105.169C253.226 105.477 253.164 105.693 253.041 105.816C252.918 105.909 252.702 105.955 252.393 105.955H250.034C249.756 105.955 249.571 105.909 249.479 105.816C249.386 105.724 249.34 105.554 249.34 105.307V72.2761C249.34 71.8443 249.51 71.6284 249.849 71.6284H252.671C253.041 71.6284 253.226 71.8289 253.226 72.2298V93.6955C253.226 94.004 253.272 94.1582 253.365 94.1582C253.457 94.1582 253.565 94.0656 253.689 93.8806L265.116 81.9912C265.455 81.6211 265.779 81.436 266.087 81.436H268.909C269.279 81.436 269.464 81.544 269.464 81.7598C269.464 81.8524 269.356 82.0374 269.14 82.315L261.831 89.7632C261.708 89.9483 261.646 90.0871 261.646 90.1796C261.646 90.2721 261.692 90.3955 261.785 90.5497L270.482 105.215ZM276.642 95.2222C276.642 96.7026 276.997 98.0751 277.706 99.3396C278.446 100.604 279.433 101.606 280.667 102.347C281.901 103.087 283.258 103.457 284.738 103.457C287.822 103.457 290.228 102.177 291.955 99.6171C292.078 99.4938 292.186 99.4321 292.279 99.4321C292.371 99.4012 292.479 99.4167 292.603 99.4783L294.546 100.45C294.792 100.604 294.823 100.82 294.638 101.098C293.435 102.948 292.001 104.305 290.336 105.169C288.67 106.001 286.681 106.418 284.368 106.418C282.117 106.418 280.096 105.893 278.308 104.845C276.519 103.796 275.115 102.331 274.098 100.45C273.111 98.5377 272.617 96.3633 272.617 93.9269C272.617 91.3053 273.126 89.023 274.144 87.08C275.162 85.1062 276.55 83.5949 278.308 82.5463C280.096 81.4977 282.101 80.9734 284.322 80.9734C286.542 80.9734 288.485 81.4669 290.151 82.4538C291.847 83.4407 293.158 84.8903 294.083 86.8024C295.008 88.6838 295.471 90.9198 295.471 93.5105V93.6955C295.471 93.9731 295.425 94.189 295.332 94.3432C295.24 94.4666 295.055 94.5283 294.777 94.5283H277.059C276.781 94.5283 276.642 94.7596 276.642 95.2222ZM290.798 91.9838C291.138 91.9838 291.354 91.953 291.446 91.8913C291.539 91.7988 291.585 91.6137 291.585 91.3362C291.585 89.9791 291.292 88.73 290.706 87.5889C290.151 86.4169 289.318 85.4917 288.208 84.8132C287.128 84.1038 285.864 83.7491 284.414 83.7491C282.841 83.7491 281.469 84.1501 280.297 84.952C279.125 85.723 278.23 86.7408 277.614 88.0053C276.997 89.2389 276.704 90.5651 276.735 91.9838H290.798ZM301.58 105.955C301.148 105.955 300.932 105.755 300.932 105.354V82.0374C300.932 81.6365 301.102 81.436 301.441 81.436H304.125C304.464 81.436 304.633 81.6056 304.633 81.9449V84.952C304.633 85.137 304.68 85.2449 304.772 85.2758C304.896 85.3066 305.019 85.2449 305.142 85.0907C307.486 82.3458 309.876 80.9734 312.313 80.9734C313.392 80.9734 313.932 81.1739 313.932 81.5748V84.3505C313.932 84.659 313.793 84.7823 313.516 84.7206C312.961 84.6281 312.267 84.5819 311.434 84.5819C310.54 84.5819 309.568 84.844 308.519 85.3683C307.471 85.8926 306.592 86.5711 305.883 87.4039C305.173 88.2366 304.818 89.0847 304.818 89.9483V105.261C304.818 105.724 304.587 105.955 304.125 105.955H301.58ZM333.354 86.8487C332.706 85.8926 331.812 85.137 330.67 84.5819C329.56 83.9959 328.265 83.7029 326.784 83.7029C325.088 83.7029 323.7 84.073 322.621 84.8132C321.541 85.5225 321.002 86.4632 321.002 87.6352C321.002 88.3445 321.264 88.9922 321.788 89.5782C322.343 90.1333 323.33 90.6268 324.749 91.0586L330.624 92.8166C332.66 93.3717 334.171 94.2044 335.158 95.3147C336.145 96.3942 336.638 97.6895 336.638 99.2008C336.638 100.619 336.207 101.884 335.343 102.994C334.479 104.074 333.292 104.922 331.781 105.539C330.27 106.125 328.558 106.418 326.646 106.418C324.271 106.418 322.158 105.955 320.308 105.03C318.457 104.074 317.146 102.84 316.375 101.329C316.283 101.175 316.237 101.051 316.237 100.959C316.237 100.805 316.314 100.681 316.468 100.589L318.272 99.5709C318.581 99.3858 318.812 99.4012 318.966 99.6171C320.632 102.27 323.207 103.596 326.692 103.596C328.512 103.565 330.007 103.195 331.179 102.485C332.382 101.745 332.984 100.789 332.984 99.6171C332.984 98.7536 332.629 98.0288 331.92 97.4428C331.21 96.8568 330.054 96.3325 328.45 95.8699L323.685 94.5283C321.433 93.9423 319.814 93.125 318.827 92.0764C317.871 91.0277 317.393 89.7478 317.393 88.2366C317.393 86.8179 317.779 85.5534 318.55 84.4431C319.352 83.3328 320.462 82.4846 321.881 81.8986C323.33 81.2818 324.98 80.9734 326.831 80.9734C328.866 80.9734 330.686 81.3589 332.29 82.1299C333.924 82.901 335.173 83.9496 336.037 85.2758C336.253 85.5842 336.237 85.8001 335.991 85.9235L334.048 86.9875C333.924 87.0492 333.832 87.08 333.77 87.08C333.647 87.08 333.508 87.0029 333.354 86.8487ZM349.709 100.014C349.709 98.207 350.131 96.2418 350.974 94.1184C351.817 91.98 353.022 90.2482 354.588 88.9229C356.154 87.5977 357.675 86.9351 359.151 86.9351C360.492 86.9351 361.591 87.5073 362.449 88.6519C363.323 89.7813 363.759 91.3174 363.759 93.26C363.759 95.6093 363.278 97.8381 362.314 99.9464C361.35 102.055 360.138 103.674 358.677 104.803C357.231 105.917 355.808 106.475 354.408 106.475C353.158 106.475 352.058 105.993 351.11 105.029C350.176 104.065 349.709 102.394 349.709 100.014ZM352.126 102.612C352.126 103.425 352.337 104.118 352.759 104.69C353.18 105.262 353.76 105.548 354.498 105.548C356.516 105.548 358.172 103.636 359.468 99.8109C360.778 95.9858 361.433 93.0643 361.433 91.0463C361.433 90.0072 361.229 89.2316 360.823 88.7196C360.431 88.1925 359.837 87.929 359.038 87.929C357.156 87.929 355.53 89.706 354.159 93.26C352.804 96.799 352.126 99.9163 352.126 102.612ZM378.985 87.4546L378.691 88.4486H374.738L371.236 101.663C369.64 107.642 367.893 111.655 365.996 113.703C364.098 115.751 362.013 116.775 359.739 116.775C358.474 116.775 357.337 116.482 356.328 115.894C355.304 115.307 354.792 114.577 354.792 113.703C354.792 113.206 354.95 112.8 355.266 112.483C355.582 112.167 355.951 112.009 356.373 112.009C356.87 112.009 357.269 112.182 357.57 112.528C357.871 112.89 358.022 113.274 358.022 113.681C358.022 113.786 357.999 113.974 357.954 114.245L357.909 114.629C357.909 114.915 358.09 115.179 358.451 115.42C358.812 115.661 359.249 115.781 359.761 115.781C361.568 115.781 363.089 114.818 364.324 112.89C365.559 110.962 366.96 107.1 368.526 101.302L371.982 88.4486H367.532L367.826 87.4546H372.298C372.343 87.2739 372.464 86.8372 372.66 86.1445C374.693 78.6449 377.983 74.8951 382.531 74.8951C383.826 74.8951 384.812 75.1813 385.49 75.7535C386.183 76.3258 386.529 76.8905 386.529 77.4477C386.529 78.2458 386.153 78.6449 385.4 78.6449C384.797 78.6449 384.157 78.1254 383.48 77.0863C382.998 76.3333 382.418 75.9568 381.74 75.9568C380.716 75.9568 379.737 76.4312 378.804 77.3799C377.87 78.3136 376.839 80.8662 375.709 85.0376L375.054 87.4546H378.985ZM432.726 104.845C432.818 105.03 432.864 105.215 432.864 105.4C432.864 105.77 432.649 105.955 432.217 105.955H425.277C424.63 105.955 424.183 105.708 423.936 105.215L416.488 90.6885C416.395 90.5034 416.287 90.4109 416.164 90.4109C416.04 90.4109 415.855 90.5651 415.609 90.8735L411.491 95.7774C411.306 95.9932 411.214 96.3171 411.214 96.7489V104.891C411.214 105.261 411.106 105.539 410.89 105.724C410.705 105.878 410.396 105.955 409.965 105.955H404.136C403.765 105.955 403.503 105.893 403.349 105.77C403.195 105.616 403.118 105.369 403.118 105.03V72.5074C403.118 71.9214 403.364 71.6284 403.858 71.6284H410.52C410.982 71.6284 411.214 71.8905 411.214 72.4148V86.2473C411.214 86.5557 411.275 86.7099 411.399 86.7099C411.491 86.7099 411.615 86.6174 411.769 86.4323L422.964 72.3686C423.149 72.091 423.35 71.906 423.566 71.8134C423.782 71.6901 424.105 71.6284 424.537 71.6284H430.042C430.32 71.6284 430.536 71.6901 430.69 71.8134C430.875 71.9368 430.968 72.0756 430.968 72.2298C430.968 72.4148 430.906 72.5691 430.783 72.6924L421.9 83.1015C421.746 83.3482 421.669 83.5332 421.669 83.6566C421.669 83.78 421.715 83.965 421.808 84.2118L432.726 104.845ZM440.791 95.7774C440.791 97.5045 441.361 98.9078 442.503 99.9872C443.675 101.036 445.124 101.56 446.851 101.56C447.962 101.56 448.979 101.329 449.905 100.866C450.861 100.373 451.817 99.5709 452.773 98.4606C452.896 98.3372 453.02 98.2755 453.143 98.2755C453.235 98.2755 453.39 98.3218 453.606 98.4143L456.936 99.8022C457.152 99.8947 457.26 100.049 457.26 100.265C457.26 100.419 457.199 100.573 457.075 100.727C455.595 102.825 454.006 104.305 452.31 105.169C450.614 106.001 448.501 106.418 445.972 106.418C443.597 106.418 441.454 105.893 439.542 104.845C437.63 103.796 436.134 102.347 435.054 100.496C433.975 98.6148 433.435 96.4713 433.435 94.0656C433.435 91.4749 433.99 89.1927 435.101 87.2188C436.211 85.2141 437.707 83.672 439.588 82.5926C441.5 81.5131 443.582 80.9734 445.833 80.9734C448.177 80.9734 450.259 81.4977 452.079 82.5463C453.899 83.5641 455.317 85.0445 456.335 86.9875C457.353 88.9305 457.862 91.2436 457.862 93.9269C457.862 94.3278 457.815 94.6054 457.723 94.7596C457.661 94.9138 457.445 95.0063 457.075 95.0372H441.346C440.976 95.0372 440.791 95.2839 440.791 95.7774ZM450.09 91.1511C450.429 91.1511 450.645 91.1203 450.737 91.0586C450.83 90.9661 450.876 90.781 450.876 90.5034C450.876 89.7016 450.691 88.8997 450.321 88.0978C449.951 87.2959 449.411 86.6328 448.702 86.1085C447.992 85.5842 447.129 85.3221 446.111 85.3221C444.569 85.3221 443.304 85.8618 442.318 86.9412C441.331 88.0207 440.853 89.4086 440.883 91.1049L450.09 91.1511ZM462.624 105.955C461.976 105.955 461.652 105.647 461.652 105.03V82.315C461.652 81.729 461.899 81.436 462.393 81.436H467.805C468.299 81.436 468.545 81.6982 468.545 82.2225V84.952C468.545 85.0753 468.576 85.1678 468.638 85.2295C468.7 85.2912 468.761 85.3221 468.823 85.3221C468.916 85.3221 469.039 85.2449 469.193 85.0907C470.118 83.8571 471.213 82.8701 472.478 82.1299C473.742 81.3589 474.945 80.9734 476.086 80.9734C477.196 80.9734 477.752 81.2355 477.752 81.7598V87.1263C477.752 87.3422 477.69 87.5118 477.567 87.6352C477.443 87.7585 477.274 87.7894 477.058 87.7277C476.071 87.481 474.991 87.3576 473.819 87.3576C473.048 87.3576 472.262 87.5581 471.46 87.959C470.689 88.3291 470.041 88.838 469.517 89.4857C469.023 90.1025 468.777 90.7348 468.777 91.3824V104.891C468.777 105.6 468.376 105.955 467.574 105.955H462.624ZM494.542 103.596C492.507 105.477 490.086 106.418 487.279 106.418C484.966 106.418 483.131 105.801 481.774 104.567C480.417 103.303 479.738 101.668 479.738 99.6634C479.738 97.0727 480.926 94.9909 483.301 93.418C485.675 91.845 488.945 91.0123 493.108 90.9198L494.774 90.781C494.959 90.781 495.113 90.7348 495.236 90.6422C495.39 90.5189 495.468 90.3492 495.468 90.1333V89.1618C495.468 87.959 495.128 87.0338 494.45 86.3861C493.771 85.7384 492.8 85.4146 491.535 85.4146C489.376 85.4146 487.773 86.3398 486.724 88.1903C486.601 88.4987 486.4 88.6529 486.123 88.6529C485.968 88.6529 485.83 88.6375 485.706 88.6067L481.08 87.5426C480.802 87.481 480.664 87.3113 480.664 87.0338C480.664 86.8487 480.725 86.6174 480.849 86.3398C481.589 84.551 482.9 83.2094 484.781 82.315C486.693 81.4206 489.053 80.9734 491.859 80.9734C495.529 80.9734 498.182 81.6519 499.816 83.0089C501.451 84.3351 502.268 86.2319 502.268 88.6992V104.937C502.268 105.307 502.206 105.57 502.083 105.724C501.96 105.878 501.728 105.955 501.389 105.955H496.624C496.316 105.955 496.084 105.847 495.93 105.631C495.807 105.415 495.714 105.092 495.653 104.66L495.606 103.642C495.576 103.364 495.452 103.226 495.236 103.226C495.113 103.226 494.882 103.349 494.542 103.596ZM495.468 95.0372C495.468 94.7596 495.421 94.5591 495.329 94.4357C495.236 94.3124 495.051 94.2507 494.774 94.2507L493.478 94.3432C491.689 94.4357 490.101 94.8675 488.713 95.6386C487.356 96.3788 486.678 97.412 486.678 98.7381C486.678 99.6634 487.002 100.404 487.649 100.959C488.297 101.483 489.191 101.745 490.332 101.745C491.751 101.745 492.954 101.329 493.941 100.496C494.959 99.6942 495.468 98.8769 495.468 98.0442V95.0372ZM514.272 104.845C514.272 105.246 514.18 105.539 513.995 105.724C513.81 105.878 513.486 105.955 513.023 105.955H508.119C507.749 105.955 507.487 105.878 507.333 105.724C507.179 105.57 507.101 105.323 507.101 104.984L507.24 72.5074C507.24 71.9214 507.487 71.6284 507.98 71.6284H513.578C514.041 71.6284 514.272 71.906 514.272 72.4611V104.845ZM532.899 103.596C530.863 105.477 528.442 106.418 525.635 106.418C523.322 106.418 521.487 105.801 520.13 104.567C518.773 103.303 518.095 101.668 518.095 99.6634C518.095 97.0727 519.282 94.9909 521.657 93.418C524.032 91.845 527.301 91.0123 531.464 90.9198L533.13 90.781C533.315 90.781 533.469 90.7348 533.593 90.6422C533.747 90.5189 533.824 90.3492 533.824 90.1333V89.1618C533.824 87.959 533.485 87.0338 532.806 86.3861C532.128 85.7384 531.156 85.4146 529.892 85.4146C527.733 85.4146 526.129 86.3398 525.08 88.1903C524.957 88.4987 524.756 88.6529 524.479 88.6529C524.325 88.6529 524.186 88.6375 524.062 88.6067L519.436 87.5426C519.159 87.481 519.02 87.3113 519.02 87.0338C519.02 86.8487 519.082 86.6174 519.205 86.3398C519.945 84.551 521.256 83.2094 523.137 82.315C525.049 81.4206 527.409 80.9734 530.215 80.9734C533.886 80.9734 536.538 81.6519 538.172 83.0089C539.807 84.3351 540.624 86.2319 540.624 88.6992V104.937C540.624 105.307 540.563 105.57 540.439 105.724C540.316 105.878 540.085 105.955 539.745 105.955H534.98C534.672 105.955 534.441 105.847 534.286 105.631C534.163 105.415 534.071 105.092 534.009 104.66L533.963 103.642C533.932 103.364 533.808 103.226 533.593 103.226C533.469 103.226 533.238 103.349 532.899 103.596ZM533.824 95.0372C533.824 94.7596 533.778 94.5591 533.685 94.4357C533.593 94.3124 533.407 94.2507 533.13 94.2507L531.835 94.3432C530.046 94.4357 528.457 94.8675 527.07 95.6386C525.712 96.3788 525.034 97.412 525.034 98.7381C525.034 99.6634 525.358 100.404 526.005 100.959C526.653 101.483 527.548 101.745 528.689 101.745C530.107 101.745 531.31 101.329 532.297 100.496C533.315 99.6942 533.824 98.8769 533.824 98.0442V95.0372Z" fill="#3F7ADC"/>
</g>
<defs>
<filter id="filter0_d" x="81.9471" y="94.0996" width="78.3023" height="104.659" filterUnits="userSpaceOnUse" color-interpolation-filters="sRGB">
<feFlood flood-opacity="0" result="BackgroundImageFix"/>
<feColorMatrix in="SourceAlpha" type="matrix" values="0 0 0 0 0 0 0 0 0 0 0 0 0 0 0 0 0 0 127 0"/>
<feOffset dy="46.0048"/>
<feGaussianBlur stdDeviation="6.19098"/>
<feColorMatrix type="matrix" values="0 0 0 0 0 0 0 0 0 0 0 0 0 0 0 0 0 0 0.02 0"/>
<feBlend mode="normal" in2="BackgroundImageFix" result="effect1_dropShadow"/>
<feBlend mode="normal" in="SourceGraphic" in2="effect1_dropShadow" result="shape"/>
</filter>
<filter id="filter1_d" x="24.5965" y="94.1016" width="73.1924" height="111.925" filterUnits="userSpaceOnUse" color-interpolation-filters="sRGB">
<feFlood flood-opacity="0" result="BackgroundImageFix"/>
<feColorMatrix in="SourceAlpha" type="matrix" values="0 0 0 0 0 0 0 0 0 0 0 0 0 0 0 0 0 0 127 0"/>
<feOffset dy="46.0048"/>
<feGaussianBlur stdDeviation="6.19098"/>
<feColorMatrix type="matrix" values="0 0 0 0 0 0 0 0 0 0 0 0 0 0 0 0 0 0 0.02 0"/>
<feBlend mode="normal" in2="BackgroundImageFix" result="effect1_dropShadow"/>
<feBlend mode="normal" in="SourceGraphic" in2="effect1_dropShadow" result="shape"/>
</filter>
<filter id="filter2_d" x="19.4857" y="37.627" width="78.3021" height="104.66" filterUnits="userSpaceOnUse" color-interpolation-filters="sRGB">
<feFlood flood-opacity="0" result="BackgroundImageFix"/>
<feColorMatrix in="SourceAlpha" type="matrix" values="0 0 0 0 0 0 0 0 0 0 0 0 0 0 0 0 0 0 127 0"/>
<feOffset dy="46.0048"/>
<feGaussianBlur stdDeviation="6.19098"/>
<feColorMatrix type="matrix" values="0 0 0 0 0 0 0 0 0 0 0 0 0 0 0 0 0 0 0.02 0"/>
<feBlend mode="normal" in2="BackgroundImageFix" result="effect1_dropShadow"/>
<feBlend mode="normal" in="SourceGraphic" in2="effect1_dropShadow" result="shape"/>
</filter>
<filter id="filter3_d" x="81.9457" y="30.3633" width="72.1164" height="111.922" filterUnits="userSpaceOnUse" color-interpolation-filters="sRGB">
<feFlood flood-opacity="0" result="BackgroundImageFix"/>
<feColorMatrix in="SourceAlpha" type="matrix" values="0 0 0 0 0 0 0 0 0 0 0 0 0 0 0 0 0 0 127 0"/>
<feOffset dy="46.0048"/>
<feGaussianBlur stdDeviation="6.19098"/>
<feColorMatrix type="matrix" values="0 0 0 0 0 0 0 0 0 0 0 0 0 0 0 0 0 0 0.02 0"/>
<feBlend mode="normal" in2="BackgroundImageFix" result="effect1_dropShadow"/>
<feBlend mode="normal" in="SourceGraphic" in2="effect1_dropShadow" result="shape"/>
</filter>
<clipPath id="clip0">
<rect width="575" height="178" fill="white"/>
</clipPath>
</defs>
</svg>
