<svg width="256" height="256" viewBox="0 0 256 256" fill="none" xmlns="http://www.w3.org/2000/svg">
<rect width="256" height="256" fill="#F6F9FC"/>
<ellipse cx="125.401" cy="87.3741" rx="35.006" ry="38.8956" fill="#B8C5D2"/>
<path d="M66.8943 194.288C57.1929 189.652 58.2566 177.998 62.2596 168.019V168.019C68.9143 151.43 83.7551 139.524 101.393 136.626L110.786 135.083C121.922 133.254 133.282 133.254 144.418 135.083L153.816 136.627C171.451 139.525 186.288 151.428 192.941 168.015V168.015C196.944 177.997 197.952 189.62 188.223 194.203C184.853 195.791 180.889 197.219 176.625 198.497C144.287 208.19 109.103 208.372 76.9283 198.15C73.2615 196.985 69.849 195.699 66.8943 194.288Z" fill="#B8C5D2"/>
</svg>
