<svg width="24" height="25" viewBox="0 0 24 25" fill="none" xmlns="http://www.w3.org/2000/svg">
<path fill-rule="evenodd" clip-rule="evenodd" d="M18 0H6C2.68629 0 0 2.69 0 6.00829V18.0249C0 21.3431 2.68629 24.0331 6 24.0331H18C21.3137 24.0331 24 21.3431 24 18.0249V6.00829C24 2.69 21.3137 0 18 0ZM12.5786 8.40436C11.8316 8.29342 11.0685 8.42118 10.3979 8.76961C9.72734 9.11805 9.18324 9.66952 8.84328 10.3459C8.50332 11.0222 8.38493 11.7889 8.50509 12.5366C8.62526 13.2844 8.97779 13.975 9.51224 14.5102C10.0467 15.0453 10.7358 15.3979 11.4814 15.5181C12.2271 15.6382 12.9917 15.5199 13.6665 15.1798C14.3413 14.8396 14.8922 14.2949 15.2404 13.6229C15.5887 12.9507 15.7165 12.1856 15.6055 11.4364C15.4924 10.6722 15.1368 9.96495 14.5916 9.41903C14.0465 8.87315 13.3407 8.51752 12.5786 8.40436ZM9.28445 6.62663C10.4062 6.04377 11.6831 5.82989 12.9334 6.01555C14.2087 6.20493 15.3892 6.8 16.3005 7.71255C17.2117 8.62507 17.8055 9.80665 17.9945 11.0827C18.1797 12.3336 17.9664 13.6112 17.3846 14.7339C16.8029 15.8566 15.8823 16.7674 14.7534 17.3363C13.6246 17.9053 12.3452 18.1034 11.0973 17.9023C9.84935 17.7012 8.69678 17.1113 7.8034 16.2166C6.91003 15.322 6.32132 14.1684 6.12068 12.9198C5.92005 11.6712 6.11766 10.3911 6.68552 9.2613C7.25339 8.1315 8.16272 7.20947 9.28445 6.62663ZM19 7C19.5523 7 20 6.55228 20 6C20 5.44772 19.5523 5 19 5C18.4477 5 18 5.44772 18 6C18 6.55228 18.4477 7 19 7Z" fill="#8096AD"/>
</svg>
