<svg width="14" height="17" viewBox="0 0 14 17" fill="none" xmlns="http://www.w3.org/2000/svg">
<g opacity="0.7">
<mask id="path-1-outside-1" maskUnits="userSpaceOnUse" x="0.296387" y="-0.201172" width="13" height="17" fill="black">
<rect fill="white" x="0.296387" y="-0.201172" width="13" height="17"/>
<path fill-rule="evenodd" clip-rule="evenodd" d="M7.02319 14.3512C7.02319 14.3512 11.75 9.13618 11.75 6.52563C11.75 3.91509 9.63374 1.79883 7.02319 1.79883C4.41265 1.79883 2.29639 3.91509 2.29639 6.52563C2.29639 9.13618 7.02319 14.3512 7.02319 14.3512ZM7.02323 9.51619C8.69372 9.51619 10.0479 8.16198 10.0479 6.49149C10.0479 4.821 8.69372 3.4668 7.02323 3.4668C5.35274 3.4668 3.99854 4.821 3.99854 6.49149C3.99854 8.16198 5.35274 9.51619 7.02323 9.51619Z"/>
</mask>
<path d="M7.02319 14.3512L6.02308 15.2577L7.02319 16.3611L8.02331 15.2577L7.02319 14.3512ZM10.4002 6.52563C10.4002 6.83947 10.2351 7.41335 9.81273 8.22917C9.41276 9.00181 8.86454 9.83779 8.29375 10.6251C7.72653 11.4076 7.15636 12.1156 6.72647 12.6295C6.51211 12.8857 6.33405 13.092 6.21052 13.2331C6.14878 13.3037 6.10076 13.3579 6.06874 13.3938C6.05273 13.4117 6.04072 13.4251 6.03302 13.4337C6.02916 13.438 6.02638 13.4411 6.02471 13.4429C6.02388 13.4438 6.02332 13.4445 6.02305 13.4448C6.02291 13.4449 6.02284 13.445 6.02285 13.445C6.02285 13.445 6.02291 13.4449 6.02291 13.4449C6.02298 13.4448 6.02308 13.4447 7.02319 14.3512C8.02331 15.2577 8.02344 15.2576 8.02359 15.2574C8.02366 15.2573 8.02382 15.2571 8.02397 15.257C8.02426 15.2567 8.02462 15.2563 8.02506 15.2558C8.02593 15.2548 8.02709 15.2535 8.02852 15.2519C8.0314 15.2488 8.0354 15.2443 8.04049 15.2387C8.05067 15.2273 8.06521 15.2111 8.08382 15.1902C8.12104 15.1485 8.17456 15.0881 8.24208 15.0109C8.37704 14.8567 8.56826 14.6352 8.79704 14.3617C9.25343 13.8161 9.86496 13.0573 10.4794 12.2096C11.0904 11.3669 11.7238 10.4096 12.2101 9.47024C12.6741 8.57402 13.0998 7.51707 13.0998 6.52563H10.4002ZM7.02319 3.14862C8.88826 3.14862 10.4002 4.66056 10.4002 6.52563H13.0998C13.0998 3.16962 10.3792 0.449031 7.02319 0.449031V3.14862ZM3.64618 6.52563C3.64618 4.66056 5.15812 3.14862 7.02319 3.14862V0.449031C3.66718 0.449031 0.94659 3.16962 0.94659 6.52563H3.64618ZM7.02319 14.3512C8.02331 13.4447 8.0234 13.4448 8.02348 13.4449C8.02348 13.4449 8.02354 13.445 8.02354 13.445C8.02354 13.445 8.02347 13.4449 8.02334 13.4448C8.02306 13.4445 8.02251 13.4438 8.02167 13.4429C8.02 13.4411 8.01722 13.438 8.01337 13.4337C8.00566 13.4251 7.99366 13.4117 7.97765 13.3938C7.94563 13.3579 7.8976 13.3037 7.83587 13.2331C7.71234 13.092 7.53427 12.8857 7.31992 12.6295C6.89003 12.1156 6.31986 11.4076 5.75263 10.6251C5.18185 9.83779 4.63363 9.00181 4.23365 8.22917C3.81133 7.41335 3.64618 6.83947 3.64618 6.52563H0.94659C0.94659 7.51707 1.3723 8.57402 1.83625 9.47024C2.32255 10.4096 2.95603 11.3669 3.56695 12.2096C4.18143 13.0573 4.79295 13.8161 5.24934 14.3617C5.47812 14.6352 5.66934 14.8567 5.80431 15.0109C5.87182 15.0881 5.92535 15.1485 5.96257 15.1902C5.98118 15.2111 5.99572 15.2273 6.0059 15.2387C6.01099 15.2443 6.01499 15.2488 6.01786 15.2519C6.0193 15.2535 6.02046 15.2548 6.02133 15.2558C6.02176 15.2563 6.02213 15.2567 6.02242 15.257C6.02256 15.2571 6.02273 15.2573 6.0228 15.2574C6.02295 15.2576 6.02308 15.2577 7.02319 14.3512ZM8.69813 6.49149C8.69813 7.41651 7.94825 8.16639 7.02323 8.16639V10.866C9.4392 10.866 11.3977 8.90746 11.3977 6.49149H8.69813ZM7.02323 4.81659C7.94825 4.81659 8.69813 5.56647 8.69813 6.49149H11.3977C11.3977 4.07553 9.4392 2.117 7.02323 2.117V4.81659ZM5.34833 6.49149C5.34833 5.56647 6.09821 4.81659 7.02323 4.81659V2.117C4.60727 2.117 2.64874 4.07553 2.64874 6.49149H5.34833ZM7.02323 8.16639C6.09821 8.16639 5.34833 7.41651 5.34833 6.49149H2.64874C2.64874 8.90746 4.60727 10.866 7.02323 10.866V8.16639Z" fill="black" mask="url(#path-1-outside-1)"/>
</g>
</svg>
