<svg width="24" height="24" viewBox="0 0 24 24" fill="none" xmlns="http://www.w3.org/2000/svg">
<path d="M12.808 7.44C14.0347 7.44 14.9893 7.73867 15.672 8.336C16.3547 8.92267 16.696 9.75467 16.696 10.832C16.696 11.8773 16.3547 12.6933 15.672 13.28C14.9893 13.8667 14.0347 14.16 12.808 14.16H10.584V18H8.376V7.44H12.808ZM12.472 12.448C13.1547 12.448 13.656 12.3147 13.976 12.048C14.296 11.7707 14.456 11.36 14.456 10.816C14.456 10.272 14.296 9.86667 13.976 9.6C13.656 9.33333 13.1547 9.2 12.472 9.2H10.584V12.448H12.472Z" fill="black"/>
<circle cx="12" cy="12" r="11" stroke="black" stroke-width="2"/>
</svg>
