<svg width="29" height="29" viewBox="0 0 29 29" fill="none" xmlns="http://www.w3.org/2000/svg">
<path d="M27.7533 3.625C26.5978 4.4412 25.3184 5.06547 23.9644 5.47375C23.2377 4.63699 22.2718 4.04392 21.1976 3.77474C20.1233 3.50557 18.9923 3.57328 17.9577 3.96872C16.9231 4.36415 16.0347 5.06824 15.4127 5.98574C14.7907 6.90325 14.4652 7.98991 14.48 9.09875V10.3071C12.3594 10.3621 10.2582 9.89119 8.36342 8.93617C6.46863 7.98114 4.83911 6.57169 3.62 4.83333C3.62 4.83333 -1.20667 15.7083 9.65333 20.5417C7.16824 22.2309 4.20783 23.0779 1.20667 22.9583C12.0667 29 25.34 22.9583 25.34 9.0625C25.3389 8.72592 25.3066 8.39018 25.2435 8.05958C26.475 6.84339 27.3441 5.30786 27.7533 3.625V3.625Z" fill="#8096AD"/>
</svg>
